<mxfile host="65bd71144e">
    <diagram id="mBV9ux-L1Vn1Qn2t2vCz" name="Page-1">
        <mxGraphModel dx="685" dy="556" grid="1" gridSize="10" guides="1" tooltips="1" connect="1" arrows="1" fold="1" page="1" pageScale="1" pageWidth="850" pageHeight="1100" math="0" shadow="0">
            <root>
                <mxCell id="0"/>
                <mxCell id="1" parent="0"/>
                <mxCell id="2" value="Actor" style="shape=umlActor;verticalLabelPosition=bottom;verticalAlign=top;html=1;outlineConnect=0;" parent="1" vertex="1">
                    <mxGeometry x="90" y="260" width="30" height="60" as="geometry"/>
                </mxCell>
                <mxCell id="3" value="Author" style="shape=hexagon;perimeter=hexagonPerimeter2;whiteSpace=wrap;html=1;fixedSize=1;" parent="1" vertex="1">
                    <mxGeometry x="90" y="100" width="120" height="80" as="geometry"/>
                </mxCell>
                <mxCell id="4" value="Publisher" style="shape=hexagon;perimeter=hexagonPerimeter2;whiteSpace=wrap;html=1;fixedSize=1;" parent="1" vertex="1">
                    <mxGeometry x="60" y="10" width="120" height="80" as="geometry"/>
                </mxCell>
                <mxCell id="5" value="Book" style="shape=hexagon;perimeter=hexagonPerimeter2;whiteSpace=wrap;html=1;fixedSize=1;" parent="1" vertex="1">
                    <mxGeometry y="130" width="120" height="80" as="geometry"/>
                </mxCell>
            </root>
        </mxGraphModel>
    </diagram>
    <diagram id="CXzODHQmkcoQzQOlELOR" name="relationDiagram">
        <mxGraphModel dx="685" dy="556" grid="1" gridSize="10" guides="1" tooltips="1" connect="1" arrows="1" fold="1" page="1" pageScale="1" pageWidth="850" pageHeight="1100" math="0" shadow="0">
            <root>
                <mxCell id="0"/>
                <mxCell id="1" parent="0"/>
                <mxCell id="c_90goun0JPjvRxwTu73-3" value="Book" style="rounded=1;whiteSpace=wrap;html=1;" parent="1" vertex="1">
                    <mxGeometry x="20" y="130" width="60" height="60" as="geometry"/>
                </mxCell>
                <mxCell id="c_90goun0JPjvRxwTu73-4" value="Author" style="rounded=1;whiteSpace=wrap;html=1;" parent="1" vertex="1">
                    <mxGeometry x="160" y="370" width="120" height="60" as="geometry"/>
                </mxCell>
                <mxCell id="c_90goun0JPjvRxwTu73-5" value="Publisher" style="rounded=1;whiteSpace=wrap;html=1;" parent="1" vertex="1">
                    <mxGeometry x="240" width="120" height="20" as="geometry"/>
                </mxCell>
                <mxCell id="c_90goun0JPjvRxwTu73-6" value="book_id" style="ellipse;whiteSpace=wrap;html=1;" parent="1" vertex="1">
                    <mxGeometry x="100" y="200" width="120" height="40" as="geometry"/>
                </mxCell>
                <mxCell id="c_90goun0JPjvRxwTu73-7" value="publisher_id" style="ellipse;whiteSpace=wrap;html=1;" parent="1" vertex="1">
                    <mxGeometry x="330" y="40" width="120" height="40" as="geometry"/>
                </mxCell>
                <mxCell id="c_90goun0JPjvRxwTu73-8" value="email_adress" style="ellipse;whiteSpace=wrap;html=1;" parent="1" vertex="1">
                    <mxGeometry x="160" y="510" width="120" height="40" as="geometry"/>
                </mxCell>
                <mxCell id="c_90goun0JPjvRxwTu73-9" value="" style="endArrow=none;html=1;entryX=0.5;entryY=0;entryDx=0;entryDy=0;exitX=0.5;exitY=1;exitDx=0;exitDy=0;" parent="1" source="c_90goun0JPjvRxwTu73-5" target="c_90goun0JPjvRxwTu73-7" edge="1">
                    <mxGeometry width="50" height="50" relative="1" as="geometry">
                        <mxPoint x="90" y="310" as="sourcePoint"/>
                        <mxPoint x="140" y="260" as="targetPoint"/>
                    </mxGeometry>
                </mxCell>
                <mxCell id="c_90goun0JPjvRxwTu73-10" value="" style="endArrow=none;html=1;exitX=0.5;exitY=0;exitDx=0;exitDy=0;entryX=0.5;entryY=1;entryDx=0;entryDy=0;" parent="1" source="c_90goun0JPjvRxwTu73-8" target="c_90goun0JPjvRxwTu73-4" edge="1">
                    <mxGeometry width="50" height="50" relative="1" as="geometry">
                        <mxPoint x="90" y="310" as="sourcePoint"/>
                        <mxPoint x="140" y="260" as="targetPoint"/>
                    </mxGeometry>
                </mxCell>
                <mxCell id="c_90goun0JPjvRxwTu73-11" value="" style="endArrow=none;html=1;entryX=0.5;entryY=0;entryDx=0;entryDy=0;" parent="1" target="c_90goun0JPjvRxwTu73-6" edge="1">
                    <mxGeometry width="50" height="50" relative="1" as="geometry">
                        <mxPoint x="80" y="160" as="sourcePoint"/>
                        <mxPoint x="140" y="260" as="targetPoint"/>
                    </mxGeometry>
                </mxCell>
                <mxCell id="c_90goun0JPjvRxwTu73-12" value="title" style="ellipse;whiteSpace=wrap;html=1;" parent="1" vertex="1">
                    <mxGeometry x="201" y="110" width="120" height="40" as="geometry"/>
                </mxCell>
                <mxCell id="c_90goun0JPjvRxwTu73-13" value="price" style="ellipse;whiteSpace=wrap;html=1;" parent="1" vertex="1">
                    <mxGeometry x="251" y="160" width="120" height="40" as="geometry"/>
                </mxCell>
                <mxCell id="c_90goun0JPjvRxwTu73-14" value="description" style="ellipse;whiteSpace=wrap;html=1;" parent="1" vertex="1">
                    <mxGeometry x="241" y="220" width="120" height="40" as="geometry"/>
                </mxCell>
                <mxCell id="c_90goun0JPjvRxwTu73-15" value="" style="endArrow=none;html=1;entryX=0;entryY=1;entryDx=0;entryDy=0;exitX=1;exitY=0.5;exitDx=0;exitDy=0;" parent="1" source="c_90goun0JPjvRxwTu73-3" target="c_90goun0JPjvRxwTu73-12" edge="1">
                    <mxGeometry width="50" height="50" relative="1" as="geometry">
                        <mxPoint x="210" y="310" as="sourcePoint"/>
                        <mxPoint x="260" y="260" as="targetPoint"/>
                    </mxGeometry>
                </mxCell>
                <mxCell id="c_90goun0JPjvRxwTu73-16" value="" style="endArrow=none;html=1;entryX=0.5;entryY=0;entryDx=0;entryDy=0;exitX=1;exitY=0.5;exitDx=0;exitDy=0;" parent="1" source="c_90goun0JPjvRxwTu73-3" target="c_90goun0JPjvRxwTu73-14" edge="1">
                    <mxGeometry width="50" height="50" relative="1" as="geometry">
                        <mxPoint x="210" y="310" as="sourcePoint"/>
                        <mxPoint x="260" y="260" as="targetPoint"/>
                    </mxGeometry>
                </mxCell>
                <mxCell id="c_90goun0JPjvRxwTu73-17" value="" style="endArrow=none;html=1;entryX=0;entryY=0.5;entryDx=0;entryDy=0;exitX=1;exitY=0.5;exitDx=0;exitDy=0;" parent="1" source="c_90goun0JPjvRxwTu73-3" target="c_90goun0JPjvRxwTu73-13" edge="1">
                    <mxGeometry width="50" height="50" relative="1" as="geometry">
                        <mxPoint x="210" y="310" as="sourcePoint"/>
                        <mxPoint x="260" y="260" as="targetPoint"/>
                    </mxGeometry>
                </mxCell>
                <mxCell id="c_90goun0JPjvRxwTu73-20" value="author_id" style="ellipse;whiteSpace=wrap;html=1;" parent="1" vertex="1">
                    <mxGeometry x="305" y="500" width="120" height="40" as="geometry"/>
                </mxCell>
                <mxCell id="c_90goun0JPjvRxwTu73-21" value="last_name" style="ellipse;whiteSpace=wrap;html=1;" parent="1" vertex="1">
                    <mxGeometry x="10" y="510" width="120" height="40" as="geometry"/>
                </mxCell>
                <mxCell id="c_90goun0JPjvRxwTu73-22" value="first_name" style="ellipse;whiteSpace=wrap;html=1;" parent="1" vertex="1">
                    <mxGeometry y="440" width="120" height="40" as="geometry"/>
                </mxCell>
                <mxCell id="c_90goun0JPjvRxwTu73-23" value="" style="endArrow=none;html=1;exitX=1;exitY=0.5;exitDx=0;exitDy=0;entryX=0.5;entryY=1;entryDx=0;entryDy=0;" parent="1" source="c_90goun0JPjvRxwTu73-22" target="c_90goun0JPjvRxwTu73-4" edge="1">
                    <mxGeometry width="50" height="50" relative="1" as="geometry">
                        <mxPoint x="210" y="320" as="sourcePoint"/>
                        <mxPoint x="260" y="270" as="targetPoint"/>
                    </mxGeometry>
                </mxCell>
                <mxCell id="c_90goun0JPjvRxwTu73-24" value="" style="endArrow=none;html=1;exitX=0.5;exitY=0;exitDx=0;exitDy=0;" parent="1" source="c_90goun0JPjvRxwTu73-21" edge="1">
                    <mxGeometry width="50" height="50" relative="1" as="geometry">
                        <mxPoint x="210" y="320" as="sourcePoint"/>
                        <mxPoint x="220" y="430" as="targetPoint"/>
                    </mxGeometry>
                </mxCell>
                <mxCell id="c_90goun0JPjvRxwTu73-25" value="" style="endArrow=none;html=1;entryX=0.5;entryY=0;entryDx=0;entryDy=0;" parent="1" target="c_90goun0JPjvRxwTu73-20" edge="1">
                    <mxGeometry width="50" height="50" relative="1" as="geometry">
                        <mxPoint x="220" y="430" as="sourcePoint"/>
                        <mxPoint x="260" y="270" as="targetPoint"/>
                    </mxGeometry>
                </mxCell>
                <mxCell id="c_90goun0JPjvRxwTu73-26" value="" style="rhombus;whiteSpace=wrap;html=1;" parent="1" vertex="1">
                    <mxGeometry x="10" y="250" width="80" height="80" as="geometry"/>
                </mxCell>
                <mxCell id="c_90goun0JPjvRxwTu73-28" value="" style="endArrow=none;html=1;entryX=0.5;entryY=1;entryDx=0;entryDy=0;" parent="1" source="c_90goun0JPjvRxwTu73-26" target="c_90goun0JPjvRxwTu73-3" edge="1">
                    <mxGeometry width="50" height="50" relative="1" as="geometry">
                        <mxPoint x="210" y="320" as="sourcePoint"/>
                        <mxPoint x="260" y="270" as="targetPoint"/>
                    </mxGeometry>
                </mxCell>
                <mxCell id="c_90goun0JPjvRxwTu73-29" value="" style="endArrow=none;html=1;exitX=0.5;exitY=0;exitDx=0;exitDy=0;entryX=0.5;entryY=1;entryDx=0;entryDy=0;" parent="1" source="c_90goun0JPjvRxwTu73-4" target="c_90goun0JPjvRxwTu73-26" edge="1">
                    <mxGeometry width="50" height="50" relative="1" as="geometry">
                        <mxPoint x="210" y="320" as="sourcePoint"/>
                        <mxPoint x="260" y="270" as="targetPoint"/>
                    </mxGeometry>
                </mxCell>
                <mxCell id="c_90goun0JPjvRxwTu73-37" value="" style="edgeStyle=none;html=1;" parent="1" source="c_90goun0JPjvRxwTu73-30" target="c_90goun0JPjvRxwTu73-35" edge="1">
                    <mxGeometry relative="1" as="geometry"/>
                </mxCell>
                <mxCell id="c_90goun0JPjvRxwTu73-30" value="Book.Details" style="rounded=1;whiteSpace=wrap;html=1;" parent="1" vertex="1">
                    <mxGeometry x="231" y="290" width="120" height="20" as="geometry"/>
                </mxCell>
                <mxCell id="c_90goun0JPjvRxwTu73-31" value="id" style="ellipse;whiteSpace=wrap;html=1;" parent="1" vertex="1">
                    <mxGeometry x="160" y="320" width="120" height="20" as="geometry"/>
                </mxCell>
                <mxCell id="c_90goun0JPjvRxwTu73-32" value="publication_year" style="ellipse;whiteSpace=wrap;html=1;" parent="1" vertex="1">
                    <mxGeometry x="340" y="320" width="120" height="20" as="geometry"/>
                </mxCell>
                <mxCell id="c_90goun0JPjvRxwTu73-33" value="rating" style="ellipse;whiteSpace=wrap;html=1;" parent="1" vertex="1">
                    <mxGeometry x="251" y="340" width="120" height="20" as="geometry"/>
                </mxCell>
                <mxCell id="c_90goun0JPjvRxwTu73-34" value="language" style="ellipse;whiteSpace=wrap;html=1;" parent="1" vertex="1">
                    <mxGeometry x="360" y="270" width="120" height="20" as="geometry"/>
                </mxCell>
                <mxCell id="c_90goun0JPjvRxwTu73-35" value="" style="rhombus;whiteSpace=wrap;html=1;" parent="1" vertex="1">
                    <mxGeometry x="120" y="260" width="80" height="50" as="geometry"/>
                </mxCell>
                <mxCell id="c_90goun0JPjvRxwTu73-36" value="" style="curved=1;endArrow=classic;html=1;exitX=0;exitY=0.5;exitDx=0;exitDy=0;entryX=0.5;entryY=1;entryDx=0;entryDy=0;" parent="1" source="c_90goun0JPjvRxwTu73-35" target="c_90goun0JPjvRxwTu73-3" edge="1">
                    <mxGeometry width="50" height="50" relative="1" as="geometry">
                        <mxPoint x="210" y="320" as="sourcePoint"/>
                        <mxPoint x="260" y="270" as="targetPoint"/>
                        <Array as="points">
                            <mxPoint x="120" y="260"/>
                            <mxPoint x="80" y="250"/>
                            <mxPoint x="100" y="230"/>
                        </Array>
                    </mxGeometry>
                </mxCell>
                <mxCell id="c_90goun0JPjvRxwTu73-38" value="" style="endArrow=none;html=1;entryX=0.5;entryY=1;entryDx=0;entryDy=0;" parent="1" target="c_90goun0JPjvRxwTu73-30" edge="1">
                    <mxGeometry width="50" height="50" relative="1" as="geometry">
                        <mxPoint x="230" y="320" as="sourcePoint"/>
                        <mxPoint x="260" y="270" as="targetPoint"/>
                    </mxGeometry>
                </mxCell>
                <mxCell id="c_90goun0JPjvRxwTu73-39" value="" style="endArrow=none;html=1;entryX=0.5;entryY=1;entryDx=0;entryDy=0;" parent="1" source="c_90goun0JPjvRxwTu73-33" target="c_90goun0JPjvRxwTu73-30" edge="1">
                    <mxGeometry width="50" height="50" relative="1" as="geometry">
                        <mxPoint x="210" y="320" as="sourcePoint"/>
                        <mxPoint x="260" y="270" as="targetPoint"/>
                    </mxGeometry>
                </mxCell>
                <mxCell id="c_90goun0JPjvRxwTu73-40" value="" style="endArrow=none;html=1;entryX=0.5;entryY=1;entryDx=0;entryDy=0;exitX=0.5;exitY=0;exitDx=0;exitDy=0;" parent="1" source="c_90goun0JPjvRxwTu73-32" target="c_90goun0JPjvRxwTu73-30" edge="1">
                    <mxGeometry width="50" height="50" relative="1" as="geometry">
                        <mxPoint x="210" y="320" as="sourcePoint"/>
                        <mxPoint x="260" y="270" as="targetPoint"/>
                    </mxGeometry>
                </mxCell>
                <mxCell id="c_90goun0JPjvRxwTu73-41" value="" style="endArrow=none;html=1;entryX=0.5;entryY=1;entryDx=0;entryDy=0;" parent="1" target="c_90goun0JPjvRxwTu73-34" edge="1">
                    <mxGeometry width="50" height="50" relative="1" as="geometry">
                        <mxPoint x="350" y="300" as="sourcePoint"/>
                        <mxPoint x="260" y="270" as="targetPoint"/>
                    </mxGeometry>
                </mxCell>
                <mxCell id="c_90goun0JPjvRxwTu73-42" value="publisher_name" style="ellipse;whiteSpace=wrap;html=1;" parent="1" vertex="1">
                    <mxGeometry x="190" y="40" width="120" height="40" as="geometry"/>
                </mxCell>
                <mxCell id="c_90goun0JPjvRxwTu73-43" value="publisher_name" style="ellipse;whiteSpace=wrap;html=1;" parent="1" vertex="1">
                    <mxGeometry x="40" y="40" width="120" height="40" as="geometry"/>
                </mxCell>
            </root>
        </mxGraphModel>
    </diagram>
</mxfile>